<svg width="1200" height="400" viewBox="0 0 1200 400" fill="none" xmlns="http://www.w3.org/2000/svg">
<path d="M286.2 284.4C275.133 284.4 265.267 282.067 256.6 277.4C248.067 272.733 241.333 266.333 236.4 258.2C231.6 250.067 229.2 240.8 229.2 230.4V133H252.8V229.4C252.8 235.933 254.2 241.733 257 246.8C259.933 251.867 263.867 255.8 268.8 258.6C273.867 261.4 279.667 262.8 286.2 262.8C292.867 262.8 298.667 261.4 303.6 258.6C308.667 255.8 312.6 251.867 315.4 246.8C318.333 241.733 319.8 235.933 319.8 229.4V133H343.2V230.4C343.2 240.8 340.8 250.067 336 258.2C331.2 266.333 324.467 272.733 315.8 277.4C307.267 282.067 297.4 284.4 286.2 284.4ZM408.583 284.4C397.516 284.4 387.783 281.667 379.383 276.2C371.116 270.733 365.316 263.4 361.983 254.2L379.383 246C382.316 252.133 386.316 257 391.383 260.6C396.583 264.2 402.316 266 408.583 266C413.916 266 418.249 264.8 421.583 262.4C424.916 260 426.583 256.733 426.583 252.6C426.583 249.933 425.849 247.8 424.383 246.2C422.916 244.467 421.049 243.067 418.783 242C416.649 240.933 414.449 240.133 412.183 239.6L395.183 234.8C385.849 232.133 378.849 228.133 374.183 222.8C369.649 217.333 367.383 211 367.383 203.8C367.383 197.267 369.049 191.6 372.383 186.8C375.716 181.867 380.316 178.067 386.183 175.4C392.049 172.733 398.649 171.4 405.983 171.4C415.849 171.4 424.649 173.867 432.383 178.8C440.116 183.6 445.583 190.333 448.783 199L431.383 207.2C429.249 202 425.849 197.867 421.183 194.8C416.649 191.733 411.516 190.2 405.783 190.2C400.849 190.2 396.916 191.4 393.983 193.8C391.049 196.067 389.583 199.067 389.583 202.8C389.583 205.333 390.249 207.467 391.583 209.2C392.916 210.8 394.649 212.133 396.783 213.2C398.916 214.133 401.116 214.933 403.383 215.6L420.983 220.8C429.916 223.333 436.783 227.333 441.583 232.8C446.383 238.133 448.783 244.533 448.783 252C448.783 258.4 447.049 264.067 443.583 269C440.249 273.8 435.583 277.6 429.583 280.4C423.583 283.067 416.583 284.4 408.583 284.4ZM498.373 282L455.973 173.8H480.573L513.173 262H504.173L536.773 173.8H561.573L518.973 282H498.373ZM623.781 284.4C612.981 284.4 603.381 281.933 594.981 277C586.715 271.933 580.248 265.133 575.581 256.6C570.915 247.933 568.581 238.267 568.581 227.6C568.581 216.667 570.915 207 575.581 198.6C580.381 190.2 586.781 183.6 594.781 178.8C602.781 173.867 611.848 171.4 621.981 171.4C630.115 171.4 637.381 172.8 643.781 175.6C650.181 178.4 655.581 182.267 659.981 187.2C664.381 192 667.715 197.533 669.981 203.8C672.381 210.067 673.581 216.733 673.581 223.8C673.581 225.533 673.515 227.333 673.381 229.2C673.248 231.067 672.981 232.8 672.581 234.4H586.381V216.4H659.781L648.981 224.6C650.315 218.067 649.848 212.267 647.581 207.2C645.448 202 642.115 197.933 637.581 195C633.181 191.933 627.981 190.4 621.981 190.4C615.981 190.4 610.648 191.933 605.981 195C601.315 197.933 597.715 202.2 595.181 207.8C592.648 213.267 591.648 219.933 592.181 227.8C591.515 235.133 592.515 241.533 595.181 247C597.981 252.467 601.848 256.733 606.781 259.8C611.848 262.867 617.581 264.4 623.981 264.4C630.515 264.4 636.048 262.933 640.581 260C645.248 257.067 648.915 253.267 651.581 248.6L669.981 257.6C667.848 262.667 664.515 267.267 659.981 271.4C655.581 275.4 650.248 278.6 643.981 281C637.848 283.267 631.115 284.4 623.781 284.4ZM693.637 282V173.8H715.238V195.6L713.238 192.4C715.638 185.333 719.504 180.267 724.838 177.2C730.171 174 736.571 172.4 744.038 172.4H750.638V193H741.238C733.771 193 727.704 195.333 723.038 200C718.504 204.533 716.238 211.067 716.238 219.6V282H693.637ZM804.098 284.4C793.032 284.4 783.298 281.667 774.898 276.2C766.632 270.733 760.832 263.4 757.498 254.2L774.898 246C777.832 252.133 781.832 257 786.898 260.6C792.098 264.2 797.832 266 804.098 266C809.432 266 813.765 264.8 817.098 262.4C820.432 260 822.098 256.733 822.098 252.6C822.098 249.933 821.365 247.8 819.898 246.2C818.432 244.467 816.565 243.067 814.298 242C812.165 240.933 809.965 240.133 807.698 239.6L790.698 234.8C781.365 232.133 774.365 228.133 769.698 222.8C765.165 217.333 762.898 211 762.898 203.8C762.898 197.267 764.565 191.6 767.898 186.8C771.232 181.867 775.832 178.067 781.698 175.4C787.565 172.733 794.165 171.4 801.498 171.4C811.365 171.4 820.165 173.867 827.898 178.8C835.632 183.6 841.098 190.333 844.298 199L826.898 207.2C824.765 202 821.365 197.867 816.698 194.8C812.165 191.733 807.032 190.2 801.298 190.2C796.365 190.2 792.432 191.4 789.498 193.8C786.565 196.067 785.098 199.067 785.098 202.8C785.098 205.333 785.765 207.467 787.098 209.2C788.432 210.8 790.165 212.133 792.298 213.2C794.432 214.133 796.632 214.933 798.898 215.6L816.498 220.8C825.432 223.333 832.298 227.333 837.098 232.8C841.898 238.133 844.298 244.533 844.298 252C844.298 258.4 842.565 264.067 839.098 269C835.765 273.8 831.098 277.6 825.098 280.4C819.098 283.067 812.098 284.4 804.098 284.4ZM915.242 284.4C904.442 284.4 894.842 281.933 886.442 277C878.176 271.933 871.709 265.133 867.042 256.6C862.376 247.933 860.042 238.267 860.042 227.6C860.042 216.667 862.376 207 867.042 198.6C871.842 190.2 878.242 183.6 886.242 178.8C894.242 173.867 903.309 171.4 913.442 171.4C921.576 171.4 928.842 172.8 935.242 175.6C941.642 178.4 947.042 182.267 951.442 187.2C955.842 192 959.176 197.533 961.442 203.8C963.842 210.067 965.042 216.733 965.042 223.8C965.042 225.533 964.976 227.333 964.842 229.2C964.709 231.067 964.442 232.8 964.042 234.4H877.842V216.4H951.242L940.442 224.6C941.776 218.067 941.309 212.267 939.042 207.2C936.909 202 933.576 197.933 929.042 195C924.642 191.933 919.442 190.4 913.442 190.4C907.442 190.4 902.109 191.933 897.442 195C892.776 197.933 889.176 202.2 886.642 207.8C884.109 213.267 883.109 219.933 883.642 227.8C882.976 235.133 883.976 241.533 886.642 247C889.442 252.467 893.309 256.733 898.242 259.8C903.309 262.867 909.042 264.4 915.442 264.4C921.976 264.4 927.509 262.933 932.042 260C936.709 257.067 940.376 253.267 943.042 248.6L961.442 257.6C959.309 262.667 955.976 267.267 951.442 271.4C947.042 275.4 941.709 278.6 935.442 281C929.309 283.267 922.576 284.4 915.242 284.4Z" fill="currentColor"/>
</svg>
